<svg class="w-full h-full" version="1.1" id="Layer_1" xmlns="http://www.w3.org/2000/svg" xmlns:xlink="http://www.w3.org/1999/xlink" x="0px" y="0px" viewBox="0 0 630 250" style="enable-background:new 0 0 630 250;" xml:space="preserve">
<style type="text/css">
    .st0{fill:#FFFFFF;}
    .st1{fill:#FFFFFF;stroke:#000000;stroke-miterlimit:10;}
    .st2{fill:#07AB9C;}
    .st3{fill:#9BCCC7;}
    .st4{fill:#F9B21A;}
    .st5{fill:#ABABAB;}
    .st6{fill:#010101;}
</style>
<circle class="st0" cx="576.4" cy="199.9" r="9.7"></circle>
<ellipse class="st0" cx="195.1" cy="195.5" rx="5.9" ry="3.6"></ellipse>
<circle class="st0" cx="581.1" cy="199.1" r="8.9"></circle>
<g>
<g>
<path class="st0" d="M195.4,185.9h-8.6c-1.4,0-2.5,1.1-2.5,2.5v23.4c0,1.4,1.1,2.5,2.5,2.5c1.4,0,2.4-1.1,2.4-2.5v-6.8h5.6
            c6.2,0,11.2-3.3,11.2-9.6v-0.1C206.1,189.6,202,185.9,195.4,185.9z M201.1,195.5c0,2.9-2.3,5-6.1,5h-5.7v-10.1h5.7
            C198.7,190.4,201.1,192.1,201.1,195.5L201.1,195.5z"></path>
<path class="st0" d="M186.8,218.2c-3.6,0-6.5-2.9-6.5-6.5v-23.4c0-3.6,2.9-6.5,6.5-6.5h8.6c8.8,0,14.7,5.4,14.7,13.4
            c0,8.1-6.3,13.7-15.2,13.7h-1.6v2.8C193.3,215.3,190.4,218.2,186.8,218.2z M193.3,196.5h1.7c0.6,0,2.1-0.1,2.1-1v-0.1
            c0-0.5,0-1-2.1-1h-1.7V196.5z"></path>
</g>
<g>
<path class="st0" d="M249.6,185.7c-1.4,0-2.5,1.1-2.5,2.4V202c0,5.2-2.7,7.8-7.1,7.8c-4.4,0-7.1-2.8-7.1-8v-13.7
            c0-1.4-1.1-2.4-2.4-2.4c-1.4,0-2.5,1.1-2.5,2.4V202c0,8.2,4.7,12.4,12,12.4c7.3,0,12.1-4.2,12.1-12.6v-13.7
            C252,186.7,251,185.7,249.6,185.7z"></path>
<path class="st0" d="M240,218.4c-9.8,0-16-6.3-16-16.4v-13.9c0-3.6,2.9-6.4,6.5-6.4c3.6,0,6.4,2.9,6.4,6.4v13.7c0,4,1.9,4,3.1,4
            c1.6,0,3.1-0.3,3.1-3.8v-13.9c0-3.6,2.9-6.4,6.5-6.4c3.6,0,6.5,2.9,6.5,6.4v13.7C256,212,249.9,218.4,240,218.4z"></path>
</g>
<g>
<path class="st0" d="M293.9,199.3c2.1-1.1,4-2.9,4-6.3V193c0-1.9-0.6-3.4-1.9-4.7c-1.6-1.6-4.1-2.5-7.3-2.5h-10.1
            c-1.4,0-2.5,1.1-2.5,2.5v23.1c0,1.4,1.1,2.5,2.5,2.5h10.5c6.3,0,10.4-2.7,10.4-7.7v-0.1C299.5,202.4,297.2,200.5,293.9,199.3z
             M281,190.2h7.1c3.2,0,4.9,1.4,4.9,3.6v0.1c0,2.6-2.1,3.8-5.3,3.8H281V190.2z M294.6,205.7c0,2.5-2,3.9-5.4,3.9H281v-7.7h7.8
            C292.7,201.9,294.6,203.3,294.6,205.7L294.6,205.7z"></path>
<path class="st0" d="M289.1,218h-10.5c-3.6,0-6.5-2.9-6.5-6.5v-23.1c0-3.6,2.9-6.5,6.5-6.5h10.1c4.3,0,7.8,1.3,10.2,3.7
            c2,2,3.1,4.6,3.1,7.5c0,1.7-0.3,3.7-1.5,5.6c2.4,2.3,3,5.2,3,7.5C303.5,213.4,297.9,218,289.1,218z"></path>
</g>
<g>
<path class="st0" d="M340.1,209.5h-12.7v-21.4c0-1.4-1.1-2.4-2.5-2.4c-1.4,0-2.5,1.1-2.5,2.4v23.4c0,1.4,1.1,2.5,2.5,2.5h15.2
            c1.2,0,2.2-1,2.2-2.2C342.3,210.5,341.3,209.5,340.1,209.5z"></path>
<path class="st0" d="M340.1,218h-15.2c-3.6,0-6.5-2.9-6.5-6.5v-23.4c0-3.6,2.9-6.4,6.5-6.4c3.6,0,6.5,2.9,6.5,6.4v17.4h8.7
            c3.4,0,6.2,2.8,6.2,6.2S343.5,218,340.1,218z"></path>
</g>
<g>
<path class="st0" d="M367.3,185.7c-1.4,0-2.5,1.1-2.5,2.4v23.6c0,1.4,1.1,2.5,2.5,2.5c1.4,0,2.5-1.1,2.5-2.5v-23.6
            C369.8,186.7,368.7,185.7,367.3,185.7z"></path>
<path class="st0" d="M367.3,218.2c-3.6,0-6.5-2.9-6.5-6.5v-23.6c0-3.6,2.9-6.4,6.5-6.4c3.6,0,6.5,2.9,6.5,6.4v23.6
            C373.8,215.3,370.9,218.2,367.3,218.2z"></path>
</g>
<g>
<path class="st0" d="M405.4,197.7c-5.4-1.3-6.7-2.2-6.7-4.4v-0.1c0-1.8,1.7-3.3,4.6-3.3c2.2,0,4.3,0.7,6.5,2.1
            c0.4,0.2,0.8,0.4,1.3,0.4c1.3,0,2.3-1,2.3-2.3c0-1-0.5-1.6-1.1-2c-2.5-1.7-5.4-2.6-8.9-2.6c-5.6,0-9.6,3.3-9.6,8.2v0.1
            c0,5.2,3.4,6.9,9.4,8.4c5.2,1.2,6.3,2.3,6.3,4.3v0.1c0,2.1-1.9,3.5-5,3.5c-3.1,0-5.5-1-7.9-2.9c-0.3-0.2-0.8-0.4-1.4-0.4
            c-1.3,0-2.3,1-2.3,2.3c0,0.8,0.4,1.5,1,1.9c3.1,2.3,6.7,3.5,10.6,3.5c5.9,0,10-3.1,10-8.4v-0.1
            C414.4,201.2,411.4,199.1,405.4,197.7z"></path>
<path class="st0" d="M404.4,218.4c-4.7,0-9.1-1.5-12.9-4.3c-1.6-1.1-2.6-3.1-2.6-5.1c0-3.1,2.3-5.7,5.3-6.2
            c-2.5-1.8-4.3-4.6-4.3-9.1c0-7.1,5.7-12.2,13.6-12.2c4.1,0,7.8,1.1,11,3.2c1.8,1.1,3,3.1,3,5.4c0,2.9-2,5.4-4.7,6.1
            c3,1.7,5.7,4.7,5.7,9.8C418.4,213.3,412.7,218.4,404.4,218.4z M396.1,207.6C396.2,207.6,396.2,207.6,396.1,207.6
            C396.2,207.6,396.2,207.6,396.1,207.6z"></path>
</g>
<g>
<path class="st0" d="M458.3,185.7c-1.4,0-2.4,1.1-2.4,2.4v9.4h-13.4v-9.4c0-1.4-1.1-2.4-2.4-2.4c-1.4,0-2.5,1.1-2.5,2.4v23.6
            c0,1.4,1.1,2.5,2.5,2.5c1.4,0,2.4-1.1,2.4-2.5v-9.6h13.4v9.6c0,1.4,1.1,2.5,2.4,2.5c1.4,0,2.5-1.1,2.5-2.5v-23.6
            C460.8,186.7,459.7,185.7,458.3,185.7z"></path>
<path class="st0" d="M458.3,218.2c-3.6,0-6.4-2.9-6.4-6.5v-5.6h-5.4v5.6c0,3.6-2.9,6.5-6.4,6.5c-3.6,0-6.5-2.9-6.5-6.5v-23.6
            c0-3.6,2.9-6.4,6.5-6.4c3.6,0,6.4,2.9,6.4,6.4v5.4h5.4v-5.4c0-3.6,2.9-6.4,6.4-6.4c3.6,0,6.5,2.9,6.5,6.4v23.6
            C464.8,215.3,461.9,218.2,458.3,218.2z"></path>
</g>
<g>
<path class="st0" d="M488.1,185.7c-1.4,0-2.5,1.1-2.5,2.4v23.6c0,1.4,1.1,2.5,2.5,2.5c1.4,0,2.4-1.1,2.4-2.5v-23.6
            C490.6,186.7,489.5,185.7,488.1,185.7z"></path>
<path class="st0" d="M488.1,218.2c-3.6,0-6.5-2.9-6.5-6.5v-23.6c0-3.6,2.9-6.4,6.5-6.4c3.6,0,6.4,2.9,6.4,6.4v23.6
            C494.6,215.3,491.7,218.2,488.1,218.2z"></path>
</g>
<g>
<path class="st0" d="M537.4,185.7c-1.3,0-2.4,1.1-2.4,2.4v17.3l-14.1-18.2c-0.7-0.8-1.4-1.4-2.6-1.4h-0.5c-1.4,0-2.5,1.1-2.5,2.5
            v23.6c0,1.3,1.1,2.4,2.4,2.4c1.3,0,2.4-1.1,2.4-2.4v-17.8l14.5,18.7c0.7,0.9,1.4,1.5,2.6,1.5h0.2c1.4,0,2.4-1.1,2.4-2.5v-23.6
            C539.8,186.7,538.8,185.7,537.4,185.7z"></path>
<path class="st0" d="M517.8,218.2c-3.6,0-6.4-2.9-6.4-6.4v-23.6c0-3.6,2.9-6.5,6.5-6.5h0.5c3.3,0,5,2.1,5.7,2.9l6.9,9v-5.6
            c0-3.5,2.9-6.4,6.4-6.4c3.6,0,6.4,2.9,6.4,6.4v23.6c0,3.6-2.9,6.5-6.4,6.5h-0.2c-3.4,0-5.2-2.3-5.7-3l-7.3-9.4v6.1
            C524.2,215.3,521.3,218.2,517.8,218.2z"></path>
</g>
<g>
<path class="st0" d="M586.9,198.3h-7.8c-1.2,0-2.2,1-2.2,2.2c0,1.2,1,2.1,2.2,2.1h5.5v5.3c-1.7,1.3-4.1,2.1-6.8,2.1
            c-5.7,0-9.6-4.3-9.6-10v-0.1c0-5.4,3.9-9.9,9.1-9.9c3,0,5,0.9,6.8,2.2c0.4,0.3,0.9,0.6,1.5,0.6c1.4,0,2.4-1.1,2.4-2.5
            c0-1-0.5-1.6-1-2c-2.6-1.8-5.4-2.9-9.6-2.9c-8.5,0-14.5,6.7-14.5,14.5v0.1c0,8.2,5.8,14.5,14.6,14.5c4.2,0,7.6-1.4,10-3.1
            c1.2-0.7,1.7-1.7,1.7-3.1v-7.5C589.4,199.3,588.3,198.3,586.9,198.3z"></path>
<path class="st0" d="M577.7,218.4c-10.8,0-18.6-7.8-18.6-18.5c0-10.5,8.1-18.6,18.5-18.6c4.8,0,8.5,1.1,11.9,3.6
            c1.7,1.3,2.7,3.2,2.7,5.3c0,1.9-0.8,3.6-2.2,4.8c2,1.1,3.4,3.2,3.4,5.7v7.5c0,2.7-1.3,5-3.6,6.5
            C586.2,217.2,582,218.4,577.7,218.4z M577.4,193.9c-2.8,0-5.1,2.7-5.1,5.9c0,2.4,1,5,3.5,5.8c-1.8-1.1-3-3-3-5.2
            c0-3.4,2.8-6.2,6.2-6.2h0.8C579.2,194,578.4,193.9,577.4,193.9z"></path>
</g>
<g>
<path class="st0" d="M265.3,54h-1.3c-1.3,0-2,0.6-2.4,1.9L243,125.6c-1.1,4.3-2.1,9.4-2.1,9.4h-0.3c0,0-1.1-5-2.4-9.4l-19.6-69.9
            c-0.4-1.1-1.1-1.8-2.4-1.8h-2.3c-1.3,0-2,0.6-2.4,1.8L192,125.6c-1.3,4.4-2.4,9.4-2.4,9.4h-0.3c0,0-1-5.2-2.1-9.4l-18.1-69.7
            c-0.4-1.3-1.1-1.9-2.4-1.9h-1.3c-1.6,0-2.3,0.9-1.9,2.4l22,83.7c0.4,1.3,1.1,1.9,2.4,1.9h3c1.3,0,2-0.6,2.4-1.8l18.1-64.6
            c1.6-5.7,3.4-13.9,3.4-13.9h0.5c0,0,1.8,8.3,3.4,13.9l18.1,64.6c0.4,1.1,1.1,1.8,2.4,1.8h3c1.3,0,2-0.6,2.4-1.8l22.6-83.8
            C267.6,54.8,266.9,54,265.3,54z"></path>
<path class="st0" d="M242.2,145.9h-3c-2.9,0-5.3-1.7-6.2-4.5l-0.1-0.2l-17.9-63.9l-17.9,64c-0.9,2.8-3.3,4.5-6.2,4.5h-3
            c-3,0-5.3-1.8-6.2-4.7l0-0.1l-22-83.7c-0.7-2.7,0.3-4.4,0.9-5.2c0.6-0.8,2.1-2.2,4.8-2.2h1.3c3,0,5.3,1.8,6.2,4.7l0,0.1l16.7,64.2
            l18.1-64.6c0.9-2.8,3.3-4.5,6.2-4.5h2.3c2.9,0,5.2,1.7,6.2,4.5l0.1,0.2l18.1,64.5l17.3-64.5c0.9-3,3.2-4.7,6.2-4.7h1.3
            c2,0,3.7,0.8,4.8,2.2c1.1,1.4,1.4,3.2,1,5.2l-22.7,84.1C247.5,144.3,245.2,145.9,242.2,145.9z"></path>
</g>
<g>
<path class="st0" d="M297.5,77.6c-9.9,0-16.7,3.6-19.6,5.7c-1.1,0.8-1.3,1.9-0.4,3L278,87c0.9,1.1,1.9,1.3,3,0.5
            c2.8-1.8,8.5-4.8,16.2-4.8c10.1,0,17.2,4.8,17.2,18.7v2.1h-4.1c-11.2,0-39,0.2-39,21.6c0,12.6,11.2,18.2,21.4,18.2
            c16.3,0,22.1-15.5,22-15.5h0.3c0,0-0.5,2.3-0.5,5.7v6.2c0,1.4,0.8,2.1,2.1,2.1h1c1.4,0,2.1-0.8,2.1-2.1v-38.5
            C319.8,85.6,312,77.6,297.5,77.6z M314.5,111.9c0,12.4-7.8,26.6-21.5,26.6c-10.7,0-16.1-7-16.1-13.7c0-16.3,22.9-16.3,33.6-16.3h4
            V111.9z"></path>
<path class="st0" d="M292.7,147.4c-12.6,0-25.4-7.6-25.4-22.2c0-25.6,32.3-25.6,43-25.6h0.1c-0.5-9-4.5-12.9-13.2-12.9
            c-6.6,0-11.6,2.6-14.1,4.1c-2.8,1.9-6.2,1.3-8.3-1.4l-0.2-0.2l-0.4-0.7c-1.1-1.4-1.5-3.1-1.2-4.7c0.3-1.6,1.2-3,2.7-4
            c2.7-1.9,10.3-6.3,21.8-6.3c16.9,0,26.2,9.9,26.2,27.8v38.5c0,3.6-2.5,6.1-6.1,6.1h-1c-3.3,0-5.7-2.1-6.1-5.2
            C305.6,145.1,299.5,147.4,292.7,147.4z M310.5,112.5c-26,0-29.6,6.2-29.6,12.3c0,4.7,3.8,9.7,12.1,9.7c6.5,0,11.5-4.2,14.4-9.9
            L307,124h0.7C309.4,120.5,310.4,116.5,310.5,112.5L310.5,112.5z M280.2,86.5C280.2,86.5,280.2,86.5,280.2,86.5
            C280.2,86.5,280.2,86.5,280.2,86.5z"></path>
</g>
<g>
<path class="st0" d="M382.7,79.1h-1.3c-1.3,0-1.9,0.5-2.4,1.6L359,129.2c-1.3,3-2.1,5.9-2.1,5.9h-0.2c0,0-1-2.9-2.3-5.9
            l-20.1-48.5c-0.5-1.1-1.1-1.6-2.4-1.6h-1.3c-1.5,0-2.3,1-1.6,2.5l25,59.9l-4.4,10.4c-2.5,5.9-6.4,11.3-12.4,11.3
            c-2.5,0-4.5-1.1-6-1.9c-1.1-0.5-2.3-0.3-2.9,0.9l-0.5,0.9c-0.5,0.9-0.2,2.1,0.9,2.8c1.8,1,4.8,2.4,8.5,2.4
            c7.9,0,13.3-5.5,16.1-12.1l31.2-74.6C385,80.1,384.2,79.1,382.7,79.1z"></path>
<path class="st0" d="M337.1,172.3c-3.6,0-7.1-1-10.5-2.9c-1.4-0.8-2.5-2.1-2.9-3.7c-0.4-1.5-0.2-3.2,0.5-4.5l0.5-0.9
            c1.6-2.9,4.9-3.9,8-2.5l0.6,0.3c1.2,0.6,2.5,1.3,3.9,1.3c3.3,0,6.2-3,8.8-8.9l3.7-8.9l-24.4-58.4c-0.8-2-0.7-4,0.4-5.6
            c1.1-1.6,2.9-2.5,5-2.5h1.3c1.9,0,4.6,0.7,6,4l18.8,45.3l18.7-45.2c1.5-3.4,4.1-4.1,6.1-4.1h1.3c2.1,0,3.9,0.9,5,2.5
            c1.1,1.6,1.2,3.6,0.4,5.6l-31.2,74.6C353,166.9,345.6,172.3,337.1,172.3z M330.5,162.4C330.5,162.5,330.5,162.5,330.5,162.4
            C330.5,162.5,330.5,162.5,330.5,162.4z"></path>
</g>
<g>
<path class="st0" d="M397.4,94.2c0-8.2,7-11.4,14.2-11.4c7.2,0,11.9,2.6,14.2,4.4c1.1,0.9,2.1,0.9,3-0.3l0.8-1
            c0.8-1.1,0.5-2.1-0.5-2.9c-2.3-1.9-7.9-5.4-17.1-5.4c-10.7,0-20.1,5.8-20.1,17c0,20.5,34.6,16,34.6,31.9c0,7.8-6.8,11.8-14.5,11.8
            c-8.9,0-15.2-4.1-17.8-6.4c-1.1-0.9-2.1-0.9-3,0.1l-0.8,0.9c-0.8,1-0.8,2,0.3,2.9c2.8,2.6,9.9,7.7,21.2,7.7
            c11.6,0,20.1-6.9,20.1-17C432,105.6,397.4,110.5,397.4,94.2z"></path>
<path class="st0" d="M411.9,147.4c-13.6,0-21.7-6.6-23.9-8.7c-2.5-2.2-2.8-5.5-0.7-8.2l0.2-0.2l0.8-0.9c2.3-2.6,5.7-2.9,8.5-0.7
            l0.2,0.1c1.5,1.3,7,5.4,15.2,5.4c4.8,0,10.5-2,10.5-7.8c0-4.5-5-6.7-13.1-9.9c-9.5-3.7-21.4-8.4-21.4-22c0-12.3,9.9-21,24.1-21
            c10.8,0,17.2,4.3,19.6,6.3c2.7,2.1,3.2,5.4,1.3,8.2l-0.1,0.2l-0.8,1c-1.4,1.8-2.9,2.3-4,2.4c-1.1,0.1-2.8,0-4.7-1.4
            c-1.4-1.1-5.3-3.6-11.7-3.6c-3.1,0-10.2,0.7-10.2,7.4c0,4.7,5,6.9,13.2,10.1c9.5,3.7,21.4,8.4,21.4,22.2
            C436,138.6,425.8,147.4,411.9,147.4z"></path>
</g>
<g>
<path class="st0" d="M448.8,79.1h-1c-1.4,0-2.1,0.8-2.1,2.1v58.6c0,1.4,0.8,2.1,2.1,2.1h1c1.4,0,2.1-0.8,2.1-2.1V81.2
            C450.9,79.9,450.2,79.1,448.8,79.1z"></path>
<path class="st0" d="M448.8,145.9h-1c-3.6,0-6.1-2.5-6.1-6.1V81.2c0-3.6,2.5-6.1,6.1-6.1h1c3.6,0,6.1,2.5,6.1,6.1v58.6
            C454.9,143.4,452.4,145.9,448.8,145.9z"></path>
</g>
<g>
<path class="st0" d="M447.3,63.1h2c1.4,0,2.1-0.8,2.1-2.1v-4.9c0-1.4-0.8-2.1-2.1-2.1h-2c-1.4,0-2.1,0.8-2.1,2.1V61
            C445.2,62.4,445.9,63.1,447.3,63.1z"></path>
<path class="st0" d="M449.3,67.1h-2c-3.6,0-6.1-2.5-6.1-6.1v-4.9c0-3.6,2.5-6.1,6.1-6.1h2c3.6,0,6.1,2.5,6.1,6.1V61
            C455.4,64.6,452.9,67.1,449.3,67.1z"></path>
</g>
<g>
<path class="st0" d="M514.9,139.8c0,1.4,0.8,2.1,2.1,2.1h1c1.4,0,2.1-0.8,2.1-2.1V56.1c0-1.4-0.8-2.1-2.1-2.1h-1
            c-1.4,0-2.1,0.8-2.1,2.1v30.5c0,2.9,0.5,5.2,0.5,5.2h-0.3c0,0-5.9-14.2-21.7-14.2c-16.5,0-28.1,12.9-28.1,32.9
            c0,19.5,10.3,32.9,27.1,32.9c17.3,0,22.7-14.2,22.7-14.2h0.3c0,0-0.5,1.9-0.5,4.8V139.8z M492.7,138.3
            c-12.8,0-21.9-10.8-21.9-27.8c0-17.6,10.1-27.8,22.4-27.8c14.7,0,21.9,13.7,21.9,27.6C515,130.1,504.2,138.3,492.7,138.3z"></path>
<path class="st0" d="M492.4,147.4c-18.6,0-31.1-14.8-31.1-36.9c0-21.7,13.2-36.9,32.1-36.9c7.8,0,13.5,2.9,17.5,6.2V56.1
            c0-3.6,2.5-6.1,6.1-6.1h1c3.6,0,6.1,2.5,6.1,6.1v83.7c0,3.6-2.5,6.1-6.1,6.1h-1c-3.2,0-5.5-1.9-6-4.8
            C506.9,144.5,500.9,147.4,492.4,147.4z M493.2,86.8c-11,0-18.4,9.6-18.4,23.8c0,14.4,7,23.8,17.9,23.8c11.5,0,18.4-8.9,18.4-23.9
            C511,94.1,502.1,86.8,493.2,86.8z"></path>
</g>
<g>
<path class="st0" d="M564.9,77.6c-16.1,0-30.5,11.8-30.5,33.1c0,20,14.7,32.8,32.4,32.8c10.3,0,17.8-4.9,20.9-7.4
            c1-0.8,1.1-1.9,0.5-2.8l-0.8-1c-0.8-1.1-1.8-1.3-2.9-0.4c-2.8,2.4-9.1,6.4-17.7,6.4c-14.6,0-26.9-10.4-26.9-28.7h48.4
            c1.3,0,2.3-0.8,2.3-2.1C590.6,89.4,581.3,77.6,564.9,77.6z M540.3,104.7c2.3-14.7,12.9-22.2,24.5-22.2c10.4,0,19.6,6.9,20.2,22.2
            H540.3z"></path>
<path class="st0" d="M566.8,147.4c-21.1,0-36.4-15.5-36.4-36.8c0-11.1,3.6-20.5,10.4-27.3c6.3-6.3,14.9-9.7,24.1-9.7
            c18.3,0,29.6,13,29.6,33.9c0,3.5-2.7,6.1-6.3,6.1h-44.2c1.7,14.2,12.2,20.7,22.7,20.7c8.2,0,13.6-4.2,15.1-5.4l0.2-0.1
            c1.9-1.4,3.6-1.5,4.7-1.3c1.1,0.2,2.6,0.8,3.9,2.6l0.7,0.9c2,2.7,1.4,6.2-1.2,8.3C587.7,141.2,579.1,147.4,566.8,147.4z
             M545.4,100.7h35.2c-1.6-9-7.3-14.2-15.8-14.2C555.6,86.5,548.3,92,545.4,100.7z"></path>
</g>
<g>
<path class="st0" d="M606.2,70.8c1.4-0.4,2.3-1.5,2.3-3c0-1.9-1.6-3-3.6-3h-3.5c-0.4,0-0.8,0.3-0.8,0.8v8.3c0,0.4,0.3,0.8,0.8,0.8
            c0.4,0,0.8-0.3,0.8-0.8v-2.9h2.2l2.7,3.2c0.2,0.3,0.4,0.4,0.8,0.4c0.4,0,0.7-0.3,0.7-0.7c0-0.2-0.1-0.4-0.3-0.7L606.2,70.8z
             M602.2,69.7v-3.5h2.6c1.3,0,2.1,0.6,2.1,1.7c0,1-0.8,1.8-2.1,1.8H602.2z"></path>
<path class="st0" d="M607.8,78.6c-0.9,0-2.1-0.2-3.2-1.2c-0.8,0.8-2,1.2-3.2,1.2c-2.6,0-4.8-2.1-4.8-4.8v-8.3
            c0-2.6,2.1-4.8,4.8-4.8h3.5c4.4,0,7.6,2.9,7.6,7c0,1.2-0.3,2.3-0.8,3.3c0.6,0.9,0.9,1.8,0.9,2.8C612.5,76.6,610.5,78.6,607.8,78.6
            z"></path>
</g>
<g>
<path class="st0" d="M604.2,60.2c-5.3,0-9.6,4.4-9.6,9.6v0.1c0,5.2,4.2,9.6,9.6,9.6c5.3,0,9.6-4.4,9.6-9.6v-0.1
            C613.8,64.6,609.6,60.2,604.2,60.2z M612.7,69.8c0,4.7-3.7,8.6-8.5,8.6c-4.8,0-8.5-3.9-8.5-8.5v-0.1c0-4.7,3.7-8.6,8.5-8.6
            C609,61.3,612.7,65.1,612.7,69.8L612.7,69.8z"></path>
<path class="st0" d="M604.2,83.5c-7.5,0-13.6-6.1-13.6-13.6c0-7.6,6.1-13.7,13.6-13.7c7.5,0,13.6,6.1,13.6,13.6
            C617.8,77.4,611.7,83.5,604.2,83.5z M604.2,65.3c-2.5,0-4.5,2-4.5,4.6c0,2.6,1.9,4.6,4.5,4.6c2.5,0,4.5-2,4.5-4.6v-0.1
            C608.7,67.2,606.7,65.3,604.2,65.3z"></path>
</g>
</g>
<polygon class="st1" points="32.9,61.1 18.1,72.6 18.1,94.9 36.2,118.6 65.1,142.2 98.8,120.4 115.8,98 117.3,72.6 98.8,55 "></polygon>
<g>
<path class="st2" d="M68.5,35.4L68.5,35.4c-9.6,0-18.5,3-25.9,8c11.8,4.3,21.5,13.8,25.9,26c4.4-12.3,14.1-21.7,25.9-26
        C87,38.4,78.1,35.4,68.5,35.4L68.5,35.4z"></path>
<path class="st2" d="M28.7,199.8v-90.4c-2.6-3-4.6-5.9-6.3-8.7v99.8C24.6,200.5,26.7,200.2,28.7,199.8z"></path>
<path class="st3" d="M40.7,195.5v-74.5c-2.2-1.8-4.2-3.6-6-5.3v82.4C36.8,197.4,38.8,196.5,40.7,195.5z"></path>
<path class="st2" d="M46.7,191.8c2.1-1.6,4.1-3.3,6-5.3v-56.4l-0.8-0.8c-1.8-1.2-3.5-2.4-5.2-3.6V191.8z"></path>
<path class="st3" d="M58.7,178.8c4.3-7,6.8-15.2,6.8-24c0-7.2-1.8-14-4.8-20c-0.7-0.4-1.3-0.8-1.9-1.2V178.8z"></path>
<path class="st4" d="M114.3,130.1l0.1-29.2c-6.3,10.5-18.6,23.1-42.1,36.3c-1.1,0.6-2.3,0.9-3.6,1h0c0,0-0.1,0-0.1,0
        c1.9,5.3,2.9,10.9,2.9,16.8c0,22.3-14.2,41.4-34,48.8c0.9,0,1.8,0.1,2.8,0.1C81,203.6,114.2,170.6,114.3,130.1z"></path>
<g>
<path d="M50,84c-1.2-1.6-2.9-2.6-5-2.6c-3.5,0-6.4,2.9-6.3,6.4c0,3.5,2.9,6.4,6.4,6.3c2.1,0,3.9-1.1,5-2.7l-5-3.7L50,84z"></path>
<path d="M91.9,81.4c-2.1,0-3.9,1-5,2.6l5,3.8l-5,3.7c1.2,1.6,2.9,2.6,5,2.7c3.5,0,6.4-2.8,6.4-6.3C98.3,84.3,95.4,81.4,91.9,81.4z
            "></path>
<path d="M120.2,42.5c-1.1-0.3-2.1-0.6-3.2-0.8c-5.2-1-10.3-1-15.2-0.2c-9-7.5-20.6-12.1-33.3-12.1h0h0c-12.6,0-24.2,4.5-33.3,12.1
            c-4.9-0.8-10-0.8-15.2,0.2c-1.1,0.2-2.2,0.5-3.2,0.8c-1.6,0.3-2.7,1.9-2.4,3.5c0.3,1.6,1.9,2.7,3.5,2.4c1.1-0.3,2.1-0.5,3.2-0.7
            c2.8-0.5,5.7-0.7,8.5-0.6c-8.1,9.2-13.1,21.2-13.1,34.4l0.1,122.5c0,1.4,0.9,2.5,2.2,2.9c6.6,1.8,14.3,2.9,21.4,2.9
            c4.2,0,8.4-0.3,12.5-1v12.1l6,0v-13.3c6.9-1.6,13.5-4.1,19.6-7.4v20.7h6v-24.3c21.7-14.2,36-38.7,36.1-66.4l0-48.7
            c0-13.2-4.9-25.2-13.1-34.4c2.8-0.1,5.6,0,8.5,0.6c1.1,0.2,2.2,0.4,3.2,0.7c1.6,0.3,3.2-0.8,3.5-2.4
            C122.8,44.3,121.8,42.8,120.2,42.5z M68.4,35.4L68.4,35.4L68.4,35.4c9.6,0,18.5,3,25.9,8c-11.8,4.3-21.5,13.8-25.9,26
            c-4.4-12.3-14.1-21.7-25.9-26C49.9,38.4,58.9,35.4,68.4,35.4z M28.7,199.8c-2,0.4-4.1,0.7-6.3,0.8v-99.8c1.6,2.8,3.7,5.6,6.3,8.7
            V199.8z M114.3,130.1c-0.2,40.6-33.3,73.6-74.1,73.6c-0.9,0-1.9,0-2.8-0.1c19.8-7.3,34-26.4,34-48.8c0-5.9-1.1-11.5-2.9-16.8
            c0,0,0.1,0,0.1,0h0c1.3,0,2.5-0.3,3.6-1c23.6-13.2,35.9-25.8,42.1-36.3L114.3,130.1z M34.7,198.1v-82.4c1.8,1.7,3.8,3.5,6,5.3
            v74.5C38.8,196.5,36.8,197.4,34.7,198.1z M46.7,191.8v-66.1c1.9,1.4,3.9,2.8,6,4.2v56.7C50.8,188.5,48.8,190.2,46.7,191.8z
             M58.7,178.8v-45.2c0.6,0.4,1.3,0.8,1.9,1.2c3,6.1,4.8,12.8,4.8,20C65.4,163.6,63,171.8,58.7,178.8z M69.3,131.8
            c-0.3,0.2-0.6,0.2-0.9,0.1c-0.3,0-0.6,0-0.9-0.1c-53.9-30.1-44.4-56-44.3-56.4c2.6-7.3,9.7-11.9,18.5-11.9c0.5,0,1.1,0,1.7,0.1
            c9.5,0.6,16.1,5.7,21.2,10.5c0.3,0.2,0.5,0.5,0.8,0.6v21.5c-0.1,0.8-0.5,1.5-1.1,1.9c-1.4,0.9-2.1,2-2.1,2.1
            c-0.2,0.4-0.2,0.9,0.1,1.2l5.7,8c0.1,0.2,0.3,0.3,0.5,0.3c0.2,0,0.3-0.1,0.5-0.3l5.7-8c0.2-0.3,0.3-0.9,0-1.2
            c0-0.1-0.7-1.2-2.1-2.1c-0.6-0.4-1.1-1.1-1.1-1.9V74.8c0.3-0.2,0.6-0.4,0.9-0.7c5.1-4.9,11.7-9.9,21.2-10.5c0.6,0,1.1-0.1,1.7-0.1
            c8.8,0,15.9,4.5,18.5,11.9C113.8,75.9,123.3,101.7,69.3,131.8z"></path>
</g>
</g>
<g>
<g>
<path class="st5" d="M184.2,188.3c0-1.4,1.1-2.5,2.5-2.5h8.6c6.6,0,10.7,3.7,10.7,9.4v0.1c0,6.3-5.1,9.6-11.2,9.6h-5.6v6.8
            c0,1.4-1.1,2.5-2.4,2.5c-1.4,0-2.5-1.1-2.5-2.5V188.3z M194.9,200.5c3.7,0,6.1-2.1,6.1-5v-0.1c0-3.3-2.4-5-6.1-5h-5.7v10.1H194.9z
            "></path>
<path class="st5" d="M227.9,202v-13.9c0-1.4,1.1-2.4,2.5-2.4c1.4,0,2.4,1.1,2.4,2.4v13.7c0,5.2,2.7,8,7.1,8c4.4,0,7.1-2.6,7.1-7.8
            v-13.9c0-1.4,1.1-2.4,2.5-2.4c1.4,0,2.5,1.1,2.5,2.4v13.7c0,8.4-4.7,12.6-12.1,12.6C232.5,214.4,227.9,210.2,227.9,202z"></path>
<path class="st5" d="M276,188.3c0-1.4,1.1-2.5,2.5-2.5h10.1c3.2,0,5.7,0.9,7.3,2.5c1.2,1.2,1.9,2.8,1.9,4.7v0.1
            c0,3.4-1.9,5.2-4,6.3c3.3,1.1,5.6,3,5.6,6.8v0.1c0,5-4.1,7.7-10.4,7.7h-10.5c-1.4,0-2.5-1.1-2.5-2.5V188.3z M287.6,197.7
            c3.2,0,5.3-1.2,5.3-3.8v-0.1c0-2.2-1.8-3.6-4.9-3.6h-7.1v7.5H287.6z M289.1,209.6c3.4,0,5.4-1.3,5.4-3.9v-0.1
            c0-2.4-1.9-3.8-5.8-3.8h-7.8v7.7H289.1z"></path>
<path class="st5" d="M322.3,188.1c0-1.4,1.1-2.4,2.5-2.4c1.4,0,2.5,1.1,2.5,2.4v21.4H340c1.2,0,2.2,1,2.2,2.2c0,1.2-1,2.2-2.2,2.2
            h-15.2c-1.4,0-2.5-1.1-2.5-2.5V188.1z"></path>
<path class="st5" d="M364.7,188.1c0-1.4,1.1-2.4,2.5-2.4c1.4,0,2.5,1.1,2.5,2.4v23.6c0,1.4-1.1,2.5-2.5,2.5
            c-1.4,0-2.5-1.1-2.5-2.5V188.1z"></path>
<path class="st5" d="M393.7,210.8c-0.6-0.4-1-1.1-1-1.9c0-1.3,1-2.3,2.3-2.3c0.7,0,1.1,0.2,1.4,0.4c2.3,1.8,4.8,2.9,7.9,2.9
            s5-1.4,5-3.5v-0.1c0-2-1.1-3.1-6.3-4.3c-6-1.4-9.4-3.2-9.4-8.4v-0.1c0-4.8,4-8.2,9.6-8.2c3.5,0,6.4,0.9,8.9,2.6
            c0.6,0.3,1.1,1,1.1,2c0,1.3-1,2.3-2.3,2.3c-0.5,0-0.9-0.1-1.3-0.4c-2.2-1.4-4.3-2.1-6.5-2.1c-2.9,0-4.6,1.5-4.6,3.3v0.1
            c0,2.2,1.3,3.1,6.7,4.4c5.9,1.4,9,3.6,9,8.2v0.1c0,5.3-4.1,8.4-10,8.4C400.5,214.4,396.9,213.2,393.7,210.8z"></path>
<path class="st5" d="M437.4,188.1c0-1.4,1.1-2.4,2.5-2.4c1.4,0,2.4,1.1,2.4,2.4v9.4h13.4v-9.4c0-1.4,1.1-2.4,2.4-2.4
            c1.4,0,2.5,1.1,2.5,2.4v23.6c0,1.4-1.1,2.5-2.5,2.5c-1.4,0-2.4-1.1-2.4-2.5v-9.6h-13.4v9.6c0,1.4-1.1,2.5-2.4,2.5
            c-1.4,0-2.5-1.1-2.5-2.5V188.1z"></path>
<path class="st5" d="M485.5,188.1c0-1.4,1.1-2.4,2.5-2.4c1.4,0,2.4,1.1,2.4,2.4v23.6c0,1.4-1.1,2.5-2.4,2.5
            c-1.4,0-2.5-1.1-2.5-2.5V188.1z"></path>
<path class="st5" d="M515.2,188.2c0-1.4,1.1-2.5,2.5-2.5h0.5c1.2,0,1.9,0.6,2.6,1.4l14.1,18.2v-17.3c0-1.3,1.1-2.4,2.4-2.4
            c1.4,0,2.4,1.1,2.4,2.4v23.6c0,1.4-1,2.5-2.4,2.5h-0.2c-1.2,0-1.9-0.6-2.6-1.5l-14.5-18.7v17.8c0,1.3-1.1,2.4-2.4,2.4
            c-1.4,0-2.4-1.1-2.4-2.4V188.2z"></path>
<path class="st5" d="M563,200L563,200c0-8,6-14.6,14.5-14.6c4.2,0,7,1,9.6,2.9c0.5,0.4,1,1,1,2c0,1.3-1.1,2.5-2.4,2.5
            c-0.6,0-1.1-0.3-1.5-0.6c-1.8-1.3-3.8-2.2-6.8-2.2c-5.2,0-9.1,4.5-9.1,9.9v0.1c0,5.8,3.8,10,9.6,10c2.7,0,5.1-0.8,6.8-2.1v-5.3
            H579c-1.2,0-2.2-0.9-2.2-2.1s1-2.2,2.2-2.2h7.8c1.4,0,2.5,1.1,2.5,2.5v7.5c0,1.4-0.6,2.4-1.7,3.1c-2.4,1.6-5.8,3.1-10,3.1
            C568.8,214.5,563,208.2,563,200z"></path>
</g>
</g>
<g>
<path class="st6" d="M163.4,56.4c-0.4-1.5,0.3-2.4,1.9-2.4h1.3c1.3,0,2,0.6,2.4,1.9l18.1,69.7c1.1,4.3,2.1,9.4,2.1,9.4h0.3
        c0,0,1.1-5,2.4-9.4l19.6-69.9c0.4-1.1,1.1-1.8,2.4-1.8h2.3c1.3,0,2,0.6,2.4,1.8l19.6,69.9c1.3,4.4,2.4,9.4,2.4,9.4h0.3
        c0,0,1-5.2,2.1-9.4l18.7-69.7c0.4-1.3,1.1-1.9,2.4-1.9h1.3c1.5,0,2.3,0.9,1.9,2.4l-22.6,83.8c-0.4,1.1-1.1,1.8-2.4,1.8h-3
        c-1.3,0-2-0.6-2.4-1.8l-18.1-64.6c-1.6-5.7-3.4-13.9-3.4-13.9h-0.5c0,0-1.8,8.3-3.4,13.9l-18.1,64.6c-0.4,1.1-1.1,1.8-2.4,1.8h-3
        c-1.3,0-2-0.6-2.4-1.9L163.4,56.4z"></path>
<path class="st6" d="M310.2,103.6h4.1v-2.1c0-13.9-7.2-18.7-17.2-18.7c-7.7,0-13.4,3-16.2,4.8c-1.1,0.8-2.1,0.6-3-0.5l-0.5-0.8
        c-0.9-1.1-0.8-2.3,0.4-3c2.9-2,9.7-5.7,19.6-5.7c14.5,0,22.2,8,22.2,23.8v38.5c0,1.4-0.8,2.1-2.1,2.1h-1c-1.4,0-2.1-0.8-2.1-2.1
        v-6.2c0-3.4,0.5-5.7,0.5-5.7h-0.3c0.1,0-5.7,15.5-22,15.5c-10.2,0-21.4-5.7-21.4-18.2C271.3,103.9,299,103.6,310.2,103.6z
         M292.9,138.6c13.7,0,21.5-14.2,21.5-26.6v-3.4h-4c-10.7,0-33.6,0-33.6,16.3C276.8,131.5,282.2,138.6,292.9,138.6z"></path>
<path class="st6" d="M331,161.4c1.5,0.8,3.5,1.9,6,1.9c6,0,9.9-5.4,12.4-11.3l4.4-10.4l-25-59.9c-0.6-1.5,0.1-2.5,1.6-2.5h1.3
        c1.3,0,1.9,0.5,2.4,1.6l20.1,48.5c1.3,3,2.3,5.9,2.3,5.9h0.2c0,0,0.9-2.9,2.1-5.9L379,80.7c0.5-1.1,1.1-1.6,2.4-1.6h1.3
        c1.5,0,2.3,1,1.6,2.5l-31.2,74.6c-2.8,6.5-8.2,12.1-16.1,12.1c-3.8,0-6.8-1.4-8.5-2.4c-1.1-0.6-1.4-1.9-0.9-2.8l0.5-0.9
        C328.7,161.2,329.8,160.9,331,161.4z"></path>
<path class="st6" d="M390.3,132.9l0.8-0.9c0.9-1,1.9-1,3-0.1c2.6,2.3,8.9,6.4,17.8,6.4c7.7,0,14.5-4,14.5-11.8
        c0-16-34.6-11.4-34.6-31.9c0-11.2,9.4-17,20.1-17c9.2,0,14.8,3.5,17.1,5.4c1,0.8,1.3,1.8,0.5,2.9l-0.8,1c-0.9,1.1-1.9,1.1-3,0.3
        c-2.3-1.8-7-4.4-14.2-4.4c-7.2,0-14.2,3.3-14.2,11.4c0,16.3,34.6,11.4,34.6,32.3c0,10.1-8.5,17-20.1,17c-11.3,0-18.5-5-21.2-7.7
        C389.5,134.9,389.5,133.9,390.3,132.9z"></path>
<path class="st6" d="M445.1,61v-4.9c0-1.4,0.8-2.1,2.1-2.1h2c1.4,0,2.1,0.8,2.1,2.1V61c0,1.4-0.8,2.1-2.1,2.1h-2
        C445.8,63.1,445.1,62.4,445.1,61z M445.6,81.2c0-1.4,0.8-2.1,2.1-2.1h1c1.4,0,2.1,0.8,2.1,2.1v58.6c0,1.4-0.8,2.1-2.1,2.1h-1
        c-1.4,0-2.1-0.8-2.1-2.1V81.2z"></path>
<path class="st6" d="M493.3,77.6c15.8,0,21.7,14.2,21.7,14.2h0.3c0,0-0.5-2.3-0.5-5.2V56.1c0-1.4,0.8-2.1,2.1-2.1h1
        c1.4,0,2.1,0.8,2.1,2.1v83.7c0,1.4-0.8,2.1-2.1,2.1h-1c-1.4,0-2.1-0.8-2.1-2.1V134c0-2.9,0.5-4.8,0.5-4.8h-0.3
        c0,0-5.4,14.2-22.7,14.2c-16.8,0-27.1-13.4-27.1-32.9C465.2,90.5,476.9,77.6,493.3,77.6z M492.6,138.3c11.6,0,22.4-8.2,22.4-27.9
        c0-13.9-7.2-27.6-21.9-27.6c-12.3,0-22.4,10.2-22.4,27.8C470.7,127.5,479.7,138.3,492.6,138.3z"></path>
<path class="st6" d="M564.8,77.6c16.3,0,25.6,11.8,25.6,29.9c0,1.4-1,2.1-2.3,2.1h-48.4c0,18.2,12.3,28.7,26.9,28.7
        c8.7,0,15-4,17.7-6.4c1.1-0.9,2.1-0.8,2.9,0.4l0.8,1c0.6,0.9,0.5,2-0.5,2.8c-3,2.5-10.6,7.4-20.9,7.4c-17.7,0-32.4-12.8-32.4-32.8
        C534.3,89.4,548.7,77.6,564.8,77.6z M584.9,104.7c-0.6-15.3-9.8-22.2-20.2-22.2c-11.6,0-22.2,7.5-24.5,22.2H584.9z"></path>
</g>
<path d="M594.5,69.9L594.5,69.9c0-5.3,4.2-9.7,9.6-9.7c5.4,0,9.6,4.3,9.6,9.6v0.1c0,5.2-4.2,9.6-9.6,9.6
    C598.7,79.5,594.5,75.1,594.5,69.9z M612.6,69.8L612.6,69.8c0-4.7-3.6-8.6-8.5-8.6c-4.8,0-8.5,3.9-8.5,8.6v0.1
    c0,4.7,3.6,8.5,8.5,8.5C608.9,78.4,612.6,74.5,612.6,69.8z M600.5,65.6c0-0.4,0.3-0.8,0.8-0.8h3.5c2,0,3.6,1,3.6,3
    c0,1.5-0.9,2.5-2.3,3l2.1,2.5c0.2,0.3,0.3,0.4,0.3,0.7c0,0.4-0.3,0.7-0.7,0.7c-0.3,0-0.5-0.2-0.8-0.4l-2.7-3.2h-2.2v2.9
    c0,0.4-0.3,0.8-0.8,0.8c-0.4,0-0.8-0.3-0.8-0.8V65.6z M604.6,69.7c1.4,0,2.1-0.7,2.1-1.8c0-1.2-0.8-1.7-2.1-1.7h-2.6v3.5H604.6z"></path>
<g>
<path class="st0" d="M48.7,223.8v-11.3c-2.7,0.3-5.3,0.4-8,0.4c-6.9,0-14.8-1.1-22.1-3c-3.1-0.8-5.3-3.6-5.3-6.9l0-120.2
        c0-10.2,2.8-20.1,8.1-28.7c-0.5,0.1-0.9,0.2-1.4,0.3c-0.8,0.2-1.3,0.2-1.7,0.2c-3.4,0-6.4-2.4-7-5.8c-0.4-1.9,0-3.8,1.1-5.4
        c1.1-1.6,2.7-2.7,4.6-3c0.8-0.2,2-0.5,3.1-0.8c2.9-0.6,5.8-0.8,8.7-0.8c1.9,0,3.9,0.1,5.8,0.4c9.7-7.5,21.6-11.6,33.9-11.6
        c12.3,0,24.2,4.1,33.9,11.6c1.9-0.2,3.9-0.4,5.8-0.4c2.9,0,5.8,0.3,8.7,0.8c1.2,0.2,2.4,0.5,3.5,0.9c1.5,0.3,3.2,1.3,4.2,2.9
        c1.1,1.6,1.5,3.5,1.1,5.4c-0.6,3.4-3.6,5.8-7,5.8l0,0c-0.5,0-0.9,0-1.4-0.1c-0.6-0.2-1.2-0.3-1.7-0.4c5.3,8.6,8.1,18.5,8.1,28.7
        l0,47.8c-0.1,27-13.3,52-35.5,67.5v25.8H73.8V206c-3.5,1.5-7.1,2.8-10.8,3.8v14L48.7,223.8z"></path>
<path class="st2" d="M68.5,37.7L68.5,37.7c-9.4,0-18.2,2.9-25.4,7.9c11.5,4.2,21.1,13.5,25.4,25.6c4.3-12,13.9-21.4,25.4-25.6
        C86.6,40.6,77.9,37.7,68.5,37.7L68.5,37.7z"></path>
<path class="st2" d="M29.5,199.1v-88.7c-2.5-3-4.5-5.8-6.1-8.5v98C25.4,199.7,27.5,199.5,29.5,199.1z"></path>
<path class="st3" d="M41.2,194.9v-73.1c-2.1-1.8-4.1-3.5-5.9-5.2v80.9C37.4,196.7,39.3,195.9,41.2,194.9z"></path>
<path class="st2" d="M47.1,191.2c2.1-1.6,4.1-3.3,5.9-5.2v-55.4l-0.8-0.8c-1.8-1.2-3.5-2.4-5.1-3.5V191.2z"></path>
<path class="st3" d="M58.8,178.4c4.2-6.9,6.7-14.9,6.7-23.6c0-7.1-1.8-13.7-4.8-19.7c-0.6-0.4-1.3-0.8-1.9-1.1V178.4z"></path>
<path class="st4" d="M113.5,130.6l0.1-28.7c-6.1,10.3-18.2,22.7-41.4,35.6c-1.1,0.6-2.3,0.9-3.6,0.9h0c0,0-0.1,0-0.1,0
        c1.8,5.2,2.9,10.7,2.9,16.5c0,21.9-13.9,40.7-33.4,47.9c0.9,0,1.8,0.1,2.7,0.1C80.8,202.8,113.3,170.4,113.5,130.6z"></path>
<path d="M50.4,85.3c-1.1-1.5-2.9-2.6-4.9-2.6c-3.4,0-6.2,2.8-6.2,6.3c0,3.5,2.8,6.2,6.3,6.2c2.1,0,3.8-1.1,4.9-2.6l-5-3.6
        L50.4,85.3z"></path>
<path d="M91.5,82.8c-2,0-3.8,1-4.9,2.6l4.9,3.7l-5,3.6c1.1,1.5,2.9,2.6,4.9,2.6c3.5,0,6.3-2.8,6.3-6.2
        C97.7,85.6,94.9,82.8,91.5,82.8z"></path>
<path d="M119.2,44.6c-1-0.3-2.1-0.6-3.2-0.8c-5.1-1-10.1-1-14.9-0.2c-8.9-7.4-20.2-11.9-32.7-11.9h0h0c-12.4,0-23.8,4.5-32.7,11.9
        c-4.8-0.8-9.9-0.8-14.9,0.2c-1.1,0.2-2.1,0.5-3.2,0.8c-1.6,0.3-2.6,1.8-2.3,3.4c0.3,1.6,1.8,2.6,3.4,2.3c1-0.3,2.1-0.5,3.2-0.7
        c2.8-0.5,5.6-0.7,8.3-0.6c-8,9-12.8,20.8-12.8,33.8L17.5,203c0,1.3,0.9,2.5,2.2,2.8c6.5,1.7,14,2.9,21,2.9c4.2,0,8.2-0.3,12.2-1
        v11.9l5.9,0v-13c6.8-1.6,13.2-4.1,19.2-7.3v20.3h5.9v-23.8c21.3-14,35.4-38,35.5-65.2l0-47.8c0-12.9-4.9-24.8-12.8-33.8
        c2.7-0.1,5.5,0,8.3,0.6c1.1,0.2,2.1,0.4,3.2,0.7c1.6,0.3,3.1-0.7,3.4-2.3C121.9,46.4,120.8,44.9,119.2,44.6z M68.4,37.7L68.4,37.7
        L68.4,37.7c9.4,0,18.2,2.9,25.4,7.9c-11.5,4.2-21.1,13.5-25.4,25.6C64.2,59.1,54.6,49.8,43,45.6C50.3,40.6,59,37.7,68.4,37.7z
         M29.5,199.1c-2,0.4-4.1,0.7-6.1,0.8v-98c1.6,2.7,3.6,5.5,6.1,8.5V199.1z M113.5,130.6c-0.2,39.9-32.7,72.2-72.8,72.2
        c-0.9,0-1.8,0-2.7-0.1c19.5-7.2,33.4-25.9,33.4-47.9c0-5.8-1.1-11.3-2.9-16.5c0,0,0.1,0,0.1,0h0c1.3,0,2.5-0.3,3.6-0.9
        c23.1-12.9,35.2-25.3,41.4-35.6L113.5,130.6z M35.3,197.4v-80.9c1.8,1.7,3.7,3.4,5.9,5.2v73.1C39.3,195.9,37.4,196.7,35.3,197.4z
         M47.1,191.2v-64.9c1.8,1.3,3.8,2.7,5.9,4.1V186C51.2,187.9,49.2,189.7,47.1,191.2z M58.8,178.4v-44.4c0.6,0.4,1.3,0.8,1.9,1.1
        c3,5.9,4.8,12.6,4.8,19.7C65.5,163.5,63.1,171.6,58.8,178.4z M69.3,132.3c-0.3,0.1-0.6,0.2-0.9,0.1c-0.3,0-0.6,0-0.9-0.1
        c-53-29.6-43.6-55-43.5-55.4c2.6-7.2,9.5-11.6,18.1-11.6c0.5,0,1.1,0,1.6,0.1c9.4,0.6,15.8,5.6,20.8,10.3c0.3,0.2,0.5,0.5,0.8,0.6
        v21.1c-0.1,0.8-0.5,1.4-1.1,1.9c-1.4,0.9-2,2-2.1,2c-0.2,0.4-0.2,0.9,0.1,1.2l5.6,7.9c0.1,0.2,0.3,0.3,0.4,0.3
        c0.2,0,0.3-0.1,0.4-0.3l5.6-7.9c0.2-0.3,0.3-0.8,0-1.2c0-0.1-0.7-1.1-2.1-2c-0.6-0.4-1.1-1.1-1.1-1.9V76.3c0.3-0.2,0.6-0.4,0.8-0.6
        c5-4.8,11.5-9.7,20.8-10.3c0.6,0,1.1-0.1,1.6-0.1c8.6,0,15.6,4.5,18.1,11.6C112.9,77.4,122.3,102.8,69.3,132.3z"></path>
</g>
</svg>