<?xml version="1.0" encoding="UTF-8"?>
<svg id="Layer_1" data-name="Layer 1" xmlns="http://www.w3.org/2000/svg" width="130.4" height="46" version="1.1" viewBox="0 0 130.4 46">
  <defs>
    <style>
      .cls-1 {
        fill: #6d706f;
      }

      .cls-1, .cls-2 {
        stroke-width: 0px;
      }

      .cls-2 {
        fill: #036b80;
      }
    </style>
  </defs>
  <g>
    <path class="cls-2" d="M18.7,9.9h-1.3c-2.2-7.2-3.2-7.9-5.6-7.9s-5.8,2.6-5.8,9.8,2.2,10.4,6,10.4,5.9-2.3,6-7.2h1c0,5.8-3.3,8.4-7.7,8.4-6.2,0-10.1-4.5-10.1-11.1S5.4,1.1,12.3,1.1s4.2.7,6.3,1.3v7.5Z"/>
    <path class="cls-2" d="M24.7,12.2c0-8,1.8-10.2,5.2-10.2s5.2,2.2,5.2,10.2-1.8,10.2-5.2,10.2-5.2-2.2-5.2-10.2ZM19.9,12.2c0,6.6,4.3,11.1,10,11.1s10-4.5,10-11.1S35.6,1.1,29.9,1.1s-10,4.5-10,11.1Z"/>
    <path class="cls-2" d="M40.9,1.8h6.1v2.6h0c1.4-2.4,3.5-3.3,6-3.3s5,1.4,5.8,3.3c1.4-2.4,3.5-3.3,6-3.3,3.7,0,6.4,1.7,6.4,5.8v14.9h2.4v.9h-9.1v-.9h2.4V6.6c0-3-1.2-4-3-4-2.8,0-4.7,2.1-4.7,6.3v12.8h2.4v.9h-9.1v-.9h2.4V6.6c0-3-1.2-4-3-4-2.8,0-4.7,2.1-4.7,6.3v12.8h2.4v.9h-9.1v-.9h2.4V2.7h-1.9v-.9Z"/>
    <path class="cls-2" d="M90.1,12.2c0,7.8-1.7,10-4.7,10s-4.8-2.8-4.8-10,1.8-10,4.6-10,4.9,3.1,4.9,10ZM83.1,29.8v-.9h-2.6v-8.5h0c1.1,2,2.8,2.9,5.2,2.9,4.6,0,9-3.8,9-11.1s-3.3-11.1-8.9-11.1-4.5,1.2-5.5,3.1h0V1.8h-6.3v.9h2.2v26.2h-2.2v.9h9.1Z"/>
    <path class="cls-2" d="M97.9,2.7h-2.5v-.9h6.7v3h0c1-2.4,2.6-3.7,5.6-3.7s2.5.5,3.2.7v8h-1l-1.6-4.2c-.8-2.2-1.3-3.1-2.4-3.1-1.9,0-3.7,3-3.7,6.7v12.4h3.1v.9h-9.9v-.9h2.5V2.7Z"/>
    <path class="cls-2" d="M114.1,12.2c0-8,1.8-10.2,5.2-10.2s5.2,2.2,5.2,10.2-1.8,10.2-5.2,10.2-5.2-2.2-5.2-10.2ZM109.3,12.2c0,6.6,4.3,11.1,10,11.1s10-4.5,10-11.1-4.3-11.1-10-11.1-10,4.5-10,11.1Z"/>
  </g>
  <g>
    <path class="cls-1" d="M4.4,36H1v-1.6h8.8v1.6h-3.4v8.8h-1.9v-8.8Z"/>
    <path class="cls-1" d="M19.6,43.1v1.6h-7.8v-10.4h7.6v1.6h-5.7v2.7h5v1.6h-5v2.9h5.9Z"/>
    <path class="cls-1" d="M24.3,44.2c-.8-.5-1.5-1.1-2-1.9-.5-.8-.7-1.7-.7-2.7s.2-1.9.7-2.7c.5-.8,1.1-1.4,2-1.9s1.8-.7,2.8-.7,1.6.1,2.3.4c.7.3,1.3.7,1.8,1.3l-1.2,1.2c-.8-.8-1.7-1.2-2.8-1.2s-1.3.2-1.9.5c-.6.3-1,.7-1.3,1.3-.3.6-.5,1.2-.5,1.9s.2,1.3.5,1.9c.3.6.8,1,1.3,1.3.6.3,1.2.5,1.9.5,1.1,0,2-.4,2.8-1.2l1.2,1.2c-.5.6-1.1,1-1.8,1.3-.7.3-1.5.4-2.3.4s-2-.2-2.8-.7Z"/>
    <path class="cls-1" d="M42.9,34.4v10.4h-1.9v-4.4h-5.4v4.4h-1.9v-10.4h1.9v4.3h5.4v-4.3h1.9Z"/>
    <path class="cls-1" d="M55.5,34.4v10.4h-1.6l-5.7-7v7h-1.9v-10.4h1.6l5.7,7v-7h1.9Z"/>
    <path class="cls-1" d="M60.9,44.2c-.9-.5-1.5-1.1-2-1.9-.5-.8-.7-1.7-.7-2.7s.2-1.9.7-2.7,1.2-1.5,2-1.9,1.8-.7,2.9-.7,2,.2,2.9.7,1.5,1.1,2,1.9c.5.8.7,1.7.7,2.7s-.2,1.9-.7,2.7c-.5.8-1.2,1.4-2,1.9-.9.5-1.8.7-2.9.7s-2-.2-2.9-.7ZM65.6,42.7c.6-.3,1-.7,1.3-1.3s.5-1.2.5-1.9-.2-1.3-.5-1.9-.8-1-1.3-1.3c-.6-.3-1.2-.5-1.9-.5s-1.3.2-1.9.5c-.6.3-1,.7-1.3,1.3-.3.6-.5,1.2-.5,1.9s.2,1.3.5,1.9c.3.6.8,1,1.3,1.3.6.3,1.2.5,1.9.5s1.3-.2,1.9-.5Z"/>
    <path class="cls-1" d="M72,34.4h1.9v8.7h5.4v1.6h-7.4v-10.4Z"/>
    <path class="cls-1" d="M83.3,44.2c-.9-.5-1.5-1.1-2-1.9-.5-.8-.7-1.7-.7-2.7s.2-1.9.7-2.7,1.2-1.5,2-1.9,1.8-.7,2.9-.7,2,.2,2.9.7,1.5,1.1,2,1.9c.5.8.7,1.7.7,2.7s-.2,1.9-.7,2.7c-.5.8-1.2,1.4-2,1.9-.9.5-1.8.7-2.9.7s-2-.2-2.9-.7ZM88,42.7c.6-.3,1-.7,1.3-1.3s.5-1.2.5-1.9-.2-1.3-.5-1.9-.8-1-1.3-1.3c-.6-.3-1.2-.5-1.9-.5s-1.3.2-1.9.5c-.6.3-1,.7-1.3,1.3-.3.6-.5,1.2-.5,1.9s.2,1.3.5,1.9c.3.6.8,1,1.3,1.3.6.3,1.2.5,1.9.5s1.3-.2,1.9-.5Z"/>
    <path class="cls-1" d="M101.4,39.4h1.8v4.1c-.5.4-1.2.8-1.9,1s-1.4.3-2.2.3-2-.2-2.9-.7c-.9-.5-1.5-1.1-2-1.9-.5-.8-.7-1.7-.7-2.7s.2-1.9.7-2.7c.5-.8,1.2-1.4,2-1.9s1.8-.7,2.9-.7,1.7.1,2.4.4,1.3.7,1.8,1.3l-1.2,1.2c-.8-.8-1.7-1.2-2.9-1.2s-1.4.2-2,.5c-.6.3-1,.7-1.3,1.3-.3.6-.5,1.2-.5,1.9s.2,1.3.5,1.9c.3.6.8,1,1.3,1.3.6.3,1.2.5,1.9.5s1.5-.2,2.1-.5v-3.2Z"/>
    <path class="cls-1" d="M106.4,34.4h1.9v10.4h-1.9v-10.4Z"/>
    <path class="cls-1" d="M119.5,43.1v1.6h-7.8v-10.4h7.6v1.6h-5.7v2.7h5v1.6h-5v2.9h5.9Z"/>
    <path class="cls-1" d="M123.1,44.5c-.7-.2-1.3-.5-1.8-.9l.7-1.5c.4.3.9.6,1.6.8.6.2,1.2.3,1.9.3s1.3-.1,1.7-.4c.4-.2.6-.6.6-1s-.1-.5-.3-.7c-.2-.2-.5-.3-.8-.5-.3-.1-.8-.2-1.3-.4-.8-.2-1.4-.4-1.9-.6-.5-.2-.9-.5-1.3-.9-.4-.4-.5-.9-.5-1.6s.2-1.1.5-1.6c.3-.5.8-.8,1.4-1.1.6-.3,1.4-.4,2.3-.4s1.3,0,1.9.2c.6.2,1.1.4,1.6.7l-.6,1.5c-.5-.3-.9-.5-1.4-.6-.5-.1-1-.2-1.4-.2-.8,0-1.3.1-1.7.4-.4.3-.6.6-.6,1s.1.5.3.7c.2.2.5.3.8.4.3.1.8.2,1.3.4.8.2,1.4.4,1.9.6.5.2.9.5,1.3.9.4.4.5.9.5,1.6s-.2,1.1-.5,1.6c-.3.5-.8.8-1.4,1.1s-1.4.4-2.3.4-1.6-.1-2.3-.3Z"/>
  </g>
</svg>